<?xml version="1.0" standalone="no"?><!DOCTYPE svg PUBLIC "-//W3C//DTD SVG 1.1//EN" "http://www.w3.org/Graphics/SVG/1.1/DTD/svg11.dtd"><svg t="1490152742773" class="icon" style="" viewBox="0 0 1024 1024" version="1.1" xmlns="http://www.w3.org/2000/svg" p-id="1570" xmlns:xlink="http://www.w3.org/1999/xlink" width="32" height="32"><defs><style type="text/css"></style></defs><path d="M517.44 55.616c-265.152 0-480 214.848-480 480 0 265.088 214.848 480 480 480s480-214.848 480-480S782.464 55.616 517.44 55.616zM517.44 951.552c-229.76 0-416-186.304-416-416 0-229.76 186.24-416 416-416s416 186.24 416 416C933.376 765.312 747.136 951.552 517.44 951.552z" p-id="1571" fill="#1296db"></path><path d="M772.416 404.48c-12.416-9.472-28.736-10.368-39.232 1.152l-215.872 236.672L301.504 405.632C296.128 399.552 288.768 396.544 281.408 396.544c-6.848 0-13.76 2.624-19.072 7.872C233.088 433.408 249.856 445.376 255.552 451.648l241.664 265.024c10.496 11.52 29.888 11.52 40.384 0l239.872-263.68C783.104 446.784 798.976 424.768 772.416 404.48z" p-id="1572" fill="#1296db"></path></svg>